<mxfile host="app.diagrams.net" modified="2023-05-27T06:13:00.340Z" agent="Mozilla/5.0 (Windows NT 10.0; Win64; x64) AppleWebKit/537.36 (KHTML, like Gecko) Chrome/113.0.0.0 Safari/537.36" version="21.2.9" etag="nT9efxkx_1dFGpTS34FI" type="github">
  <diagram name="Strona-1" id="_iHbsigoF1TaLRJuEUBE">
    <mxGraphModel>
      <root>
        <mxCell id="0" />
        <mxCell id="1" parent="0" />
      </root>
    </mxGraphModel>
  </diagram>
</mxfile>
